<svg xmlns="http://www.w3.org/2000/svg" viewBox="0 0 24 24" fill="none">
  <path d="M9.5 4C5.36 4 2 6.69 2 10c0 1.89 1.08 3.57 2.78 4.72L4.25 17l2.5-1.25C7.72 16.08 8.58 16.25 9.5 16.25c.17 0 .33 0 .5-.02A5.56 5.56 0 019.5 14.5c0-3.31 3.13-6 7-6 .24 0 .48.01.71.03C16.37 5.85 13.21 4 9.5 4z" fill="#07C160"/>
  <path d="M22 14.5c0-2.76-2.69-5-6-5s-6 2.24-6 5 2.69 5 6 5c.75 0 1.47-.12 2.13-.33L20.5 20.5l-.62-2.17C21.16 17.33 22 16 22 14.5z" fill="#07C160"/>
  <circle cx="7.5" cy="9.5" r="1" fill="white"/>
  <circle cx="11.5" cy="9.5" r="1" fill="white"/>
  <circle cx="13.5" cy="13.5" r=".8" fill="white"/>
  <circle cx="18.5" cy="13.5" r=".8" fill="white"/>
</svg>
